<mxfile host="drawio.min2k.com" agent="Mozilla/5.0 (Macintosh; Intel Mac OS X 10_15_7) AppleWebKit/537.36 (KHTML, like Gecko) Chrome/136.0.0.0 Safari/537.36" version="@DRAWIO-VERSION@">
  <diagram name="第 1 页" id="LL4awxjzsyArGJotoI4n">
    <mxGraphModel dx="1434" dy="819" grid="1" gridSize="10" guides="1" tooltips="1" connect="1" arrows="1" fold="1" page="1" pageScale="1" pageWidth="827" pageHeight="1169" math="0" shadow="0">
      <root>
        <mxCell id="0" />
        <mxCell id="1" parent="0" />
        <mxCell id="xYRTevqJZESGSIVbXwi2-57" value="" style="rounded=0;whiteSpace=wrap;html=1;" parent="1" vertex="1">
          <mxGeometry x="20" y="640" width="720" height="160" as="geometry" />
        </mxCell>
        <mxCell id="xYRTevqJZESGSIVbXwi2-59" style="edgeStyle=orthogonalEdgeStyle;curved=1;rounded=0;orthogonalLoop=1;jettySize=auto;html=1;exitX=0.5;exitY=1;exitDx=0;exitDy=0;entryX=0.5;entryY=0;entryDx=0;entryDy=0;" parent="1" source="xYRTevqJZESGSIVbXwi2-56" target="xYRTevqJZESGSIVbXwi2-55" edge="1">
          <mxGeometry relative="1" as="geometry" />
        </mxCell>
        <mxCell id="xYRTevqJZESGSIVbXwi2-65" value="通过" style="edgeLabel;html=1;align=center;verticalAlign=middle;resizable=0;points=[];" parent="xYRTevqJZESGSIVbXwi2-59" vertex="1" connectable="0">
          <mxGeometry x="-0.2" y="1" relative="1" as="geometry">
            <mxPoint as="offset" />
          </mxGeometry>
        </mxCell>
        <mxCell id="xYRTevqJZESGSIVbXwi2-56" value="" style="rounded=0;whiteSpace=wrap;html=1;" parent="1" vertex="1">
          <mxGeometry x="20" y="240" width="720" height="160" as="geometry" />
        </mxCell>
        <mxCell id="xYRTevqJZESGSIVbXwi2-60" style="edgeStyle=orthogonalEdgeStyle;curved=1;rounded=0;orthogonalLoop=1;jettySize=auto;html=1;exitX=0.5;exitY=1;exitDx=0;exitDy=0;entryX=0.5;entryY=0;entryDx=0;entryDy=0;" parent="1" source="xYRTevqJZESGSIVbXwi2-55" target="xYRTevqJZESGSIVbXwi2-57" edge="1">
          <mxGeometry relative="1" as="geometry" />
        </mxCell>
        <mxCell id="xYRTevqJZESGSIVbXwi2-66" value="完成" style="edgeLabel;html=1;align=center;verticalAlign=middle;resizable=0;points=[];" parent="xYRTevqJZESGSIVbXwi2-60" vertex="1" connectable="0">
          <mxGeometry x="-0.25" relative="1" as="geometry">
            <mxPoint as="offset" />
          </mxGeometry>
        </mxCell>
        <mxCell id="xYRTevqJZESGSIVbXwi2-72" style="edgeStyle=orthogonalEdgeStyle;shape=flexArrow;curved=1;rounded=0;orthogonalLoop=1;jettySize=auto;html=1;exitX=1;exitY=0.5;exitDx=0;exitDy=0;entryX=0;entryY=0.5;entryDx=0;entryDy=0;" parent="1" source="xYRTevqJZESGSIVbXwi2-55" target="xYRTevqJZESGSIVbXwi2-68" edge="1">
          <mxGeometry relative="1" as="geometry" />
        </mxCell>
        <mxCell id="xYRTevqJZESGSIVbXwi2-55" value="" style="rounded=0;whiteSpace=wrap;html=1;" parent="1" vertex="1">
          <mxGeometry x="20" y="440" width="720" height="160" as="geometry" />
        </mxCell>
        <mxCell id="xYRTevqJZESGSIVbXwi2-58" style="edgeStyle=orthogonalEdgeStyle;curved=1;rounded=0;orthogonalLoop=1;jettySize=auto;html=1;exitX=0.5;exitY=1;exitDx=0;exitDy=0;entryX=0.5;entryY=0;entryDx=0;entryDy=0;" parent="1" source="xYRTevqJZESGSIVbXwi2-54" target="xYRTevqJZESGSIVbXwi2-56" edge="1">
          <mxGeometry relative="1" as="geometry" />
        </mxCell>
        <mxCell id="xYRTevqJZESGSIVbXwi2-67" value="完成" style="edgeLabel;html=1;align=center;verticalAlign=middle;resizable=0;points=[];" parent="xYRTevqJZESGSIVbXwi2-58" vertex="1" connectable="0">
          <mxGeometry x="-0.3" y="1" relative="1" as="geometry">
            <mxPoint as="offset" />
          </mxGeometry>
        </mxCell>
        <mxCell id="xYRTevqJZESGSIVbXwi2-54" value="" style="rounded=0;whiteSpace=wrap;html=1;" parent="1" vertex="1">
          <mxGeometry x="20" y="100" width="720" height="100" as="geometry" />
        </mxCell>
        <mxCell id="xYRTevqJZESGSIVbXwi2-76" style="edgeStyle=orthogonalEdgeStyle;curved=1;rounded=0;orthogonalLoop=1;jettySize=auto;html=1;exitX=1;exitY=0.5;exitDx=0;exitDy=0;entryX=0;entryY=0.5;entryDx=0;entryDy=0;" parent="1" source="xYRTevqJZESGSIVbXwi2-2" target="xYRTevqJZESGSIVbXwi2-14" edge="1">
          <mxGeometry relative="1" as="geometry" />
        </mxCell>
        <mxCell id="xYRTevqJZESGSIVbXwi2-2" value="演练场景选择" style="rounded=0;whiteSpace=wrap;html=1;" parent="1" vertex="1">
          <mxGeometry x="120" y="140" width="100" height="40" as="geometry" />
        </mxCell>
        <mxCell id="xYRTevqJZESGSIVbXwi2-16" style="edgeStyle=orthogonalEdgeStyle;curved=1;rounded=0;orthogonalLoop=1;jettySize=auto;html=1;exitX=1;exitY=0.5;exitDx=0;exitDy=0;entryX=0;entryY=0.5;entryDx=0;entryDy=0;" parent="1" source="xYRTevqJZESGSIVbXwi2-14" target="xYRTevqJZESGSIVbXwi2-15" edge="1">
          <mxGeometry relative="1" as="geometry" />
        </mxCell>
        <mxCell id="xYRTevqJZESGSIVbXwi2-14" value="演练模版参数配置" style="rounded=0;whiteSpace=wrap;html=1;" parent="1" vertex="1">
          <mxGeometry x="260" y="140" width="100" height="40" as="geometry" />
        </mxCell>
        <mxCell id="xYRTevqJZESGSIVbXwi2-75" style="edgeStyle=orthogonalEdgeStyle;curved=1;rounded=0;orthogonalLoop=1;jettySize=auto;html=1;exitX=1;exitY=0.5;exitDx=0;exitDy=0;entryX=0;entryY=0.5;entryDx=0;entryDy=0;" parent="1" source="xYRTevqJZESGSIVbXwi2-15" target="xYRTevqJZESGSIVbXwi2-26" edge="1">
          <mxGeometry relative="1" as="geometry" />
        </mxCell>
        <mxCell id="xYRTevqJZESGSIVbXwi2-15" value="持续时间，企微通知地址等" style="rounded=0;whiteSpace=wrap;html=1;" parent="1" vertex="1">
          <mxGeometry x="400" y="140" width="100" height="40" as="geometry" />
        </mxCell>
        <mxCell id="xYRTevqJZESGSIVbXwi2-17" value="启动检测程序" style="rounded=0;whiteSpace=wrap;html=1;" parent="1" vertex="1">
          <mxGeometry x="180" y="300" width="100" height="40" as="geometry" />
        </mxCell>
        <mxCell id="xYRTevqJZESGSIVbXwi2-21" style="edgeStyle=orthogonalEdgeStyle;curved=1;rounded=0;orthogonalLoop=1;jettySize=auto;html=1;exitX=0.76;exitY=0.75;exitDx=0;exitDy=0;exitPerimeter=0;entryX=0;entryY=0.5;entryDx=0;entryDy=0;" parent="1" source="xYRTevqJZESGSIVbXwi2-18" target="xYRTevqJZESGSIVbXwi2-20" edge="1">
          <mxGeometry relative="1" as="geometry">
            <Array as="points">
              <mxPoint x="396" y="360" />
            </Array>
          </mxGeometry>
        </mxCell>
        <mxCell id="xYRTevqJZESGSIVbXwi2-24" value="不通过" style="edgeLabel;html=1;align=center;verticalAlign=middle;resizable=0;points=[];" parent="xYRTevqJZESGSIVbXwi2-21" vertex="1" connectable="0">
          <mxGeometry x="0.1429" y="2" relative="1" as="geometry">
            <mxPoint as="offset" />
          </mxGeometry>
        </mxCell>
        <mxCell id="xYRTevqJZESGSIVbXwi2-22" style="edgeStyle=orthogonalEdgeStyle;curved=1;rounded=0;orthogonalLoop=1;jettySize=auto;html=1;exitX=0.78;exitY=0.25;exitDx=0;exitDy=0;exitPerimeter=0;entryX=0;entryY=0.5;entryDx=0;entryDy=0;" parent="1" source="xYRTevqJZESGSIVbXwi2-18" target="xYRTevqJZESGSIVbXwi2-19" edge="1">
          <mxGeometry relative="1" as="geometry">
            <Array as="points">
              <mxPoint x="398" y="280" />
            </Array>
          </mxGeometry>
        </mxCell>
        <mxCell id="xYRTevqJZESGSIVbXwi2-23" value="通过" style="edgeLabel;html=1;align=center;verticalAlign=middle;resizable=0;points=[];" parent="xYRTevqJZESGSIVbXwi2-22" vertex="1" connectable="0">
          <mxGeometry x="0.0976" y="-3" relative="1" as="geometry">
            <mxPoint as="offset" />
          </mxGeometry>
        </mxCell>
        <mxCell id="xYRTevqJZESGSIVbXwi2-18" value="集群健康检查" style="strokeWidth=2;html=1;shape=mxgraph.flowchart.decision;whiteSpace=wrap;" parent="1" vertex="1">
          <mxGeometry x="320" y="280" width="100" height="80" as="geometry" />
        </mxCell>
        <mxCell id="xYRTevqJZESGSIVbXwi2-19" value="演练执行" style="rounded=0;whiteSpace=wrap;html=1;" parent="1" vertex="1">
          <mxGeometry x="460" y="260" width="100" height="40" as="geometry" />
        </mxCell>
        <mxCell id="xYRTevqJZESGSIVbXwi2-20" value="终止演练流程" style="rounded=0;whiteSpace=wrap;html=1;" parent="1" vertex="1">
          <mxGeometry x="460" y="340" width="100" height="40" as="geometry" />
        </mxCell>
        <mxCell id="xYRTevqJZESGSIVbXwi2-25" style="edgeStyle=orthogonalEdgeStyle;curved=1;rounded=0;orthogonalLoop=1;jettySize=auto;html=1;exitX=1;exitY=0.5;exitDx=0;exitDy=0;entryX=0;entryY=0.5;entryDx=0;entryDy=0;entryPerimeter=0;" parent="1" source="xYRTevqJZESGSIVbXwi2-17" target="xYRTevqJZESGSIVbXwi2-18" edge="1">
          <mxGeometry relative="1" as="geometry" />
        </mxCell>
        <mxCell id="xYRTevqJZESGSIVbXwi2-26" value="开始前置检查" style="rounded=0;whiteSpace=wrap;html=1;" parent="1" vertex="1">
          <mxGeometry x="540" y="140" width="100" height="40" as="geometry" />
        </mxCell>
        <mxCell id="xYRTevqJZESGSIVbXwi2-30" style="edgeStyle=orthogonalEdgeStyle;curved=1;rounded=0;orthogonalLoop=1;jettySize=auto;html=1;exitX=0.86;exitY=0.025;exitDx=0;exitDy=0;entryX=0;entryY=0.5;entryDx=0;entryDy=0;exitPerimeter=0;" parent="1" source="xYRTevqJZESGSIVbXwi2-27" target="xYRTevqJZESGSIVbXwi2-28" edge="1">
          <mxGeometry relative="1" as="geometry" />
        </mxCell>
        <mxCell id="xYRTevqJZESGSIVbXwi2-33" value="内置场景" style="edgeLabel;html=1;align=center;verticalAlign=middle;resizable=0;points=[];" parent="xYRTevqJZESGSIVbXwi2-30" vertex="1" connectable="0">
          <mxGeometry x="0.2" y="-2" relative="1" as="geometry">
            <mxPoint as="offset" />
          </mxGeometry>
        </mxCell>
        <mxCell id="xYRTevqJZESGSIVbXwi2-31" style="edgeStyle=orthogonalEdgeStyle;curved=1;rounded=0;orthogonalLoop=1;jettySize=auto;html=1;exitX=0.86;exitY=1;exitDx=0;exitDy=0;entryX=0;entryY=0.5;entryDx=0;entryDy=0;exitPerimeter=0;" parent="1" source="xYRTevqJZESGSIVbXwi2-27" target="xYRTevqJZESGSIVbXwi2-29" edge="1">
          <mxGeometry relative="1" as="geometry" />
        </mxCell>
        <mxCell id="xYRTevqJZESGSIVbXwi2-32" value="自定义场景" style="edgeLabel;html=1;align=center;verticalAlign=middle;resizable=0;points=[];" parent="xYRTevqJZESGSIVbXwi2-31" vertex="1" connectable="0">
          <mxGeometry x="0.175" y="5" relative="1" as="geometry">
            <mxPoint as="offset" />
          </mxGeometry>
        </mxCell>
        <mxCell id="xYRTevqJZESGSIVbXwi2-27" value="演练执行引擎" style="rounded=0;whiteSpace=wrap;html=1;" parent="1" vertex="1">
          <mxGeometry x="40" y="500" width="100" height="40" as="geometry" />
        </mxCell>
        <mxCell id="xYRTevqJZESGSIVbXwi2-28" value="内置演练流程" style="rounded=0;whiteSpace=wrap;html=1;" parent="1" vertex="1">
          <mxGeometry x="220" y="460" width="100" height="40" as="geometry" />
        </mxCell>
        <mxCell id="xYRTevqJZESGSIVbXwi2-29" value="用户自定义流程" style="rounded=0;whiteSpace=wrap;html=1;" parent="1" vertex="1">
          <mxGeometry x="220" y="540" width="100" height="40" as="geometry" />
        </mxCell>
        <mxCell id="xYRTevqJZESGSIVbXwi2-34" value="监控检查点" style="rounded=0;whiteSpace=wrap;html=1;" parent="1" vertex="1">
          <mxGeometry x="380" y="500" width="100" height="40" as="geometry" />
        </mxCell>
        <mxCell id="xYRTevqJZESGSIVbXwi2-35" style="edgeStyle=orthogonalEdgeStyle;curved=1;rounded=0;orthogonalLoop=1;jettySize=auto;html=1;exitX=1;exitY=0.5;exitDx=0;exitDy=0;entryX=0.07;entryY=0;entryDx=0;entryDy=0;entryPerimeter=0;" parent="1" source="xYRTevqJZESGSIVbXwi2-28" target="xYRTevqJZESGSIVbXwi2-34" edge="1">
          <mxGeometry relative="1" as="geometry" />
        </mxCell>
        <mxCell id="xYRTevqJZESGSIVbXwi2-36" style="edgeStyle=orthogonalEdgeStyle;curved=1;rounded=0;orthogonalLoop=1;jettySize=auto;html=1;exitX=1;exitY=0.5;exitDx=0;exitDy=0;entryX=0.07;entryY=1.025;entryDx=0;entryDy=0;entryPerimeter=0;" parent="1" source="xYRTevqJZESGSIVbXwi2-29" target="xYRTevqJZESGSIVbXwi2-34" edge="1">
          <mxGeometry relative="1" as="geometry" />
        </mxCell>
        <mxCell id="xYRTevqJZESGSIVbXwi2-42" style="edgeStyle=orthogonalEdgeStyle;curved=1;rounded=0;orthogonalLoop=1;jettySize=auto;html=1;exitX=0.89;exitY=0.4;exitDx=0;exitDy=0;exitPerimeter=0;entryX=0;entryY=0.5;entryDx=0;entryDy=0;" parent="1" source="xYRTevqJZESGSIVbXwi2-38" target="xYRTevqJZESGSIVbXwi2-40" edge="1">
          <mxGeometry relative="1" as="geometry">
            <Array as="points">
              <mxPoint x="609" y="480" />
            </Array>
          </mxGeometry>
        </mxCell>
        <mxCell id="dlyfBJuHvlS9HMXKa7Ch-1" value="是" style="edgeLabel;html=1;align=center;verticalAlign=middle;resizable=0;points=[];" vertex="1" connectable="0" parent="xYRTevqJZESGSIVbXwi2-42">
          <mxGeometry x="0.1807" y="-6" relative="1" as="geometry">
            <mxPoint as="offset" />
          </mxGeometry>
        </mxCell>
        <mxCell id="xYRTevqJZESGSIVbXwi2-44" style="edgeStyle=orthogonalEdgeStyle;curved=1;rounded=0;orthogonalLoop=1;jettySize=auto;html=1;exitX=0.89;exitY=0.613;exitDx=0;exitDy=0;exitPerimeter=0;entryX=0;entryY=0.5;entryDx=0;entryDy=0;" parent="1" source="xYRTevqJZESGSIVbXwi2-38" target="xYRTevqJZESGSIVbXwi2-43" edge="1">
          <mxGeometry relative="1" as="geometry">
            <Array as="points">
              <mxPoint x="609" y="560" />
            </Array>
          </mxGeometry>
        </mxCell>
        <mxCell id="dlyfBJuHvlS9HMXKa7Ch-2" value="否" style="edgeLabel;html=1;align=center;verticalAlign=middle;resizable=0;points=[];" vertex="1" connectable="0" parent="xYRTevqJZESGSIVbXwi2-44">
          <mxGeometry x="-0.5129" y="8" relative="1" as="geometry">
            <mxPoint as="offset" />
          </mxGeometry>
        </mxCell>
        <mxCell id="xYRTevqJZESGSIVbXwi2-38" value="异常" style="strokeWidth=2;html=1;shape=mxgraph.flowchart.decision;whiteSpace=wrap;" parent="1" vertex="1">
          <mxGeometry x="520" y="480" width="100" height="80" as="geometry" />
        </mxCell>
        <mxCell id="xYRTevqJZESGSIVbXwi2-39" style="edgeStyle=orthogonalEdgeStyle;curved=1;rounded=0;orthogonalLoop=1;jettySize=auto;html=1;exitX=1;exitY=0.5;exitDx=0;exitDy=0;entryX=0;entryY=0.5;entryDx=0;entryDy=0;entryPerimeter=0;" parent="1" source="xYRTevqJZESGSIVbXwi2-34" target="xYRTevqJZESGSIVbXwi2-38" edge="1">
          <mxGeometry relative="1" as="geometry" />
        </mxCell>
        <mxCell id="xYRTevqJZESGSIVbXwi2-40" value="终止" style="rounded=0;whiteSpace=wrap;html=1;" parent="1" vertex="1">
          <mxGeometry x="660" y="460" width="60" height="40" as="geometry" />
        </mxCell>
        <mxCell id="xYRTevqJZESGSIVbXwi2-43" value="继续" style="rounded=0;whiteSpace=wrap;html=1;" parent="1" vertex="1">
          <mxGeometry x="660" y="540" width="60" height="40" as="geometry" />
        </mxCell>
        <mxCell id="xYRTevqJZESGSIVbXwi2-49" style="edgeStyle=orthogonalEdgeStyle;curved=1;rounded=0;orthogonalLoop=1;jettySize=auto;html=1;exitX=0.88;exitY=0;exitDx=0;exitDy=0;entryX=0;entryY=0.5;entryDx=0;entryDy=0;exitPerimeter=0;" parent="1" source="xYRTevqJZESGSIVbXwi2-45" target="xYRTevqJZESGSIVbXwi2-46" edge="1">
          <mxGeometry relative="1" as="geometry" />
        </mxCell>
        <mxCell id="xYRTevqJZESGSIVbXwi2-52" style="edgeStyle=orthogonalEdgeStyle;curved=1;rounded=0;orthogonalLoop=1;jettySize=auto;html=1;exitX=0.87;exitY=1.025;exitDx=0;exitDy=0;entryX=0;entryY=0.5;entryDx=0;entryDy=0;exitPerimeter=0;" parent="1" source="xYRTevqJZESGSIVbXwi2-45" target="xYRTevqJZESGSIVbXwi2-47" edge="1">
          <mxGeometry relative="1" as="geometry" />
        </mxCell>
        <mxCell id="xYRTevqJZESGSIVbXwi2-45" value="演练结果" style="rounded=0;whiteSpace=wrap;html=1;" parent="1" vertex="1">
          <mxGeometry x="150" y="710" width="100" height="40" as="geometry" />
        </mxCell>
        <mxCell id="xYRTevqJZESGSIVbXwi2-46" value="存储argo workflow(CRD)" style="rounded=0;whiteSpace=wrap;html=1;" parent="1" vertex="1">
          <mxGeometry x="330" y="670" width="100" height="40" as="geometry" />
        </mxCell>
        <mxCell id="xYRTevqJZESGSIVbXwi2-53" style="edgeStyle=orthogonalEdgeStyle;curved=1;rounded=0;orthogonalLoop=1;jettySize=auto;html=1;exitX=1;exitY=0.5;exitDx=0;exitDy=0;" parent="1" source="xYRTevqJZESGSIVbXwi2-47" target="xYRTevqJZESGSIVbXwi2-48" edge="1">
          <mxGeometry relative="1" as="geometry" />
        </mxCell>
        <mxCell id="xYRTevqJZESGSIVbXwi2-47" value="自定义webhook" style="rounded=0;whiteSpace=wrap;html=1;" parent="1" vertex="1">
          <mxGeometry x="330" y="750" width="100" height="40" as="geometry" />
        </mxCell>
        <mxCell id="xYRTevqJZESGSIVbXwi2-48" value="企微/钉钉/邮件" style="rounded=0;whiteSpace=wrap;html=1;" parent="1" vertex="1">
          <mxGeometry x="510" y="750" width="100" height="40" as="geometry" />
        </mxCell>
        <mxCell id="xYRTevqJZESGSIVbXwi2-61" value="&lt;b&gt;步骤一：演练配置&lt;/b&gt;" style="text;html=1;align=center;verticalAlign=middle;whiteSpace=wrap;rounded=0;" parent="1" vertex="1">
          <mxGeometry x="295" y="100" width="170" height="30" as="geometry" />
        </mxCell>
        <mxCell id="xYRTevqJZESGSIVbXwi2-62" value="&lt;b&gt;步骤二：演练前校验&lt;/b&gt;" style="text;html=1;align=center;verticalAlign=middle;whiteSpace=wrap;rounded=0;" parent="1" vertex="1">
          <mxGeometry x="295" y="240" width="170" height="30" as="geometry" />
        </mxCell>
        <mxCell id="xYRTevqJZESGSIVbXwi2-63" value="&lt;b&gt;步骤三：执行演练&lt;/b&gt;" style="text;html=1;align=center;verticalAlign=middle;whiteSpace=wrap;rounded=0;" parent="1" vertex="1">
          <mxGeometry x="295" y="440" width="170" height="30" as="geometry" />
        </mxCell>
        <mxCell id="xYRTevqJZESGSIVbXwi2-64" value="&lt;b&gt;步骤四：演练结果处理&lt;/b&gt;" style="text;html=1;align=center;verticalAlign=middle;whiteSpace=wrap;rounded=0;" parent="1" vertex="1">
          <mxGeometry x="295" y="640" width="170" height="30" as="geometry" />
        </mxCell>
        <mxCell id="xYRTevqJZESGSIVbXwi2-68" value="触发通知" style="rounded=0;whiteSpace=wrap;html=1;" parent="1" vertex="1">
          <mxGeometry x="790" y="240" width="20" height="560" as="geometry" />
        </mxCell>
        <mxCell id="xYRTevqJZESGSIVbXwi2-71" style="edgeStyle=orthogonalEdgeStyle;shape=flexArrow;curved=1;rounded=0;orthogonalLoop=1;jettySize=auto;html=1;exitX=1;exitY=0.5;exitDx=0;exitDy=0;entryX=0.05;entryY=0.857;entryDx=0;entryDy=0;entryPerimeter=0;" parent="1" source="xYRTevqJZESGSIVbXwi2-57" target="xYRTevqJZESGSIVbXwi2-68" edge="1">
          <mxGeometry relative="1" as="geometry" />
        </mxCell>
        <mxCell id="xYRTevqJZESGSIVbXwi2-73" style="edgeStyle=orthogonalEdgeStyle;shape=flexArrow;curved=1;rounded=0;orthogonalLoop=1;jettySize=auto;html=1;exitX=1;exitY=0.5;exitDx=0;exitDy=0;entryX=0;entryY=0.143;entryDx=0;entryDy=0;entryPerimeter=0;" parent="1" source="xYRTevqJZESGSIVbXwi2-56" target="xYRTevqJZESGSIVbXwi2-68" edge="1">
          <mxGeometry relative="1" as="geometry" />
        </mxCell>
      </root>
    </mxGraphModel>
  </diagram>
</mxfile>
